:SAMPLES-PER-SECOND 30
:FULLY-SPECIFIED
:DEGREES
300
root  61.8792 38.4995 2.39574 -5.19806 5.05414 1.31915
RightUpLeg  -6.20222 -3.27667 -2.81636
RightLeg  23.5994 1.85875 0.663629
RightFoot  -13.0003 -0.111071 -1.65069
RightToes  5.82063e-011 0 -3.6325e-017
Spine  15.4985 -0.937173 -0.134544
Spine1  6.98994 -0.418568 -2.25418
HEad  -16.6925 -16.0333 7.66289
LeftShoulder1  0.850294 0.761645 -24.7758
LeftArm  5.44339 -31.4594 -52.4349
LeftForeArm  -0.986249 -57.8738 -18.3329
LeftHand  -0.0124564 3.29476 -0.296558
RightShoulder  0.132052 -2.97555 19.6323
RightArm  -13.5177 18.5595 18.8422
RightForeArm  -24.5984 60.4495 22.4667
RightHand  -0.420433 8.15565 -3.96123
LeftUpLeg  -13.01 0.556503 0.203025
LeftLeg  18.8529 2.85606 1.42329
LeftFoot  -13.2751 -0.0578461 -8.29768
LeftToes  1.68253e-010 -3.2327e-011 -2.69673e-012
301
root  61.8966 38.4089 2.2186 -4.58569 10.3192 1.02075
RightUpLeg  -6.84087 -7.78168 -3.2557
RightLeg  24.37 1.11466 0.330357
RightFoot  -12.7563 -0.109623 -1.886
RightToes  5.82063e-011 0 -3.6325e-017
Spine  15.8743 -1.16436 1.6233
Spine1  6.69607 -0.274179 -3.06081
HEad  -17.3236 -17.79 7.68549
LeftShoulder1  0.865653 0.722084 -24.8987
LeftArm  5.16134 -31.0977 -53.455
LeftForeArm  -0.266777 -57.7508 -18.1736
LeftHand  -3.44276e-005 3.14471 -0.916489
RightShoulder  0.118661 -3.02155 19.3825
RightArm  -14.3497 19.1326 17.9664
RightForeArm  -23.3412 60.2992 22.2412
RightHand  -0.275542 7.94498 -2.77288
LeftUpLeg  -15.4202 4.61958 -0.162447
LeftLeg  21.5658 7.12125 3.41253
LeftFoot  -13.5576 0.00162634 -4.05963
LeftToes  1.68253e-010 -3.2327e-011 -2.69673e-012
302
root  61.8677 38.3545 2.14309 -3.95325 15.8154 0.797607
RightUpLeg  -7.10102 -12.0245 -3.52635
RightLeg  24.8143 -0.196967 -0.32923
RightFoot  -13.0148 -0.118562 -2.09794
RightToes  5.82063e-011 0 -3.6325e-017
Spine  15.8891 -1.23418 2.93269
Spine1  6.26181 -0.156014 -3.22102
HEad  -17.4856 -21.0827 8.30314
LeftShoulder1  0.998121 0.284047 -24.774
LeftArm  5.28418 -30.7524 -53.6995
LeftForeArm  -0.0952957 -57.7533 -18.1601
LeftHand  -0.000388003 3.28709 -1.0397
RightShoulder  0.0448237 -3.30601 19.3426
RightArm  -14.8588 19.3021 17.1468
RightForeArm  -23.2188 60.425 22.3547
RightHand  -0.377823 7.56454 -3.73935
LeftUpLeg  -17.211 9.01599 -0.385908
LeftLeg  23.27 10.4268 5.20742
LeftFoot  -13.6504 0.0104605 -3.53063
LeftToes  1.68253e-010 -3.2327e-011 -2.69673e-012
303
root  61.786 38.2669 2.15162 -4.03387 21.0077 0.619263
RightUpLeg  -6.7027 -14.7348 -3.7483
RightLeg  25.7027 -2.20597 -1.38617
RightFoot  -13.6547 -0.128973 -1.8208
RightToes  5.82063e-011 0 -3.6325e-017
Spine  16.1461 -1.08983 2.68503
Spine1  6.51566 -0.292739 -2.09081
HEad  -18.2699 -23.9921 9.64653
LeftShoulder1  1.02825 0.173006 -24.6416
LeftArm  5.02638 -30.6698 -53.5626
LeftForeArm  0.0223066 -57.7945 -18.1808
LeftHand  0.0131275 3.35299 -1.86741
RightShoulder  0.0360225 -3.33935 19.2344
RightArm  -15.2468 20.2924 17.0758
RightForeArm  -23.0249 60.0955 22.0245
RightHand  -0.293816 7.27063 -3.04971
LeftUpLeg  -18.509 12.1831 -0.161067
LeftLeg  24.9656 11.3687 6.03306
LeftFoot  -13.9265 0.00107238 -3.62298
LeftToes  1.68253e-010 -3.2327e-011 -2.69673e-012
304
root  61.8215 38.2095 2.19841 -3.77423 25.7269 0.689636
RightUpLeg  -6.42901 -17.3233 -4.34773
RightLeg  26.4376 -3.77971 -2.2744
RightFoot  -14.2308 -0.129838 -1.33217
RightToes  5.82063e-011 0 -3.6325e-017
Spine  15.9988 -1.15525 3.07045
Spine1  6.98669 -0.237574 -2.39641
HEad  -19.5299 -27.178 11.8433
LeftShoulder1  1.00783 0.185993 -24.1246
LeftArm  4.72517 -30.8835 -53.6069
LeftForeArm  -0.168903 -57.5908 -18.0441
LeftHand  -0.00392603 3.16626 -0.756089
RightShoulder  0.0119701 -3.43302 19.5414
RightArm  -15.7276 21.3166 17.7333
RightForeArm  -23.2564 59.673 21.6461
RightHand  -0.272663 7.27845 -2.85618
LeftUpLeg  -20.1511 14.8998 -0.0430951
LeftLeg  25.777 8.25066 4.65473
LeftFoot  -13.2803 0.0218003 -3.50772
LeftToes  1.68253e-010 -3.2327e-011 -2.69673e-012
305
root  61.9179 38.1859 2.36442 -3.61755 30.7869 0.733582
RightUpLeg  -5.48125 -20.1721 -5.03798
RightLeg  26.7505 -5.51387 -3.24608
RightFoot  -14.6831 -0.121188 -0.751632
RightToes  5.82063e-011 0 -3.6325e-017
Spine  15.9712 -1.18618 3.30187
Spine1  7.11453 -0.283726 -2.2479
HEad  -20.9697 -30.2667 13.4409
LeftShoulder1  1.0226 0.148138 -24.2255
LeftArm  4.7114 -31.2769 -53.3828
LeftForeArm  -1.19427 -57.1838 -17.8304
LeftHand  -0.0200936 2.92041 0.225813
RightShoulder  0.0161647 -3.41733 19.7625
RightArm  -16.1773 21.6024 18.375
RightForeArm  -22.944 59.1872 21.1825
RightHand  -0.286513 7.98731 -2.84955
LeftUpLeg  -21.232 15.8599 0.308679
LeftLeg  25.1756 5.74009 3.27222
LeftFoot  -12.5199 0.0242452 -4.87215
LeftToes  1.68253e-010 -3.2327e-011 -2.69673e-012
306
root  62.0677 38.2277 2.55045 -3.0188 35.2961 0.983704
RightUpLeg  -4.5947 -22.2962 -5.70522
RightLeg  26.4294 -7.43811 -4.23364
RightFoot  -14.8152 -0.100274 0.00823118
RightToes  5.82063e-011 0 -3.6325e-017
Spine  15.7715 -1.00806 3.36176
Spine1  6.92741 -0.089992 -2.34784
HEad  -22.1002 -33.1864 14.9631
LeftShoulder1  1.06558 0.0210302 -24.3597
LeftArm  4.21581 -31.1176 -53.0971
LeftForeArm  -1.4551 -57.1098 -17.799
LeftHand  -0.0138274 3.04191 -0.158857
RightShoulder  0.062229 -3.24274 19.7978
RightArm  -15.9002 21.4145 18.5266
RightForeArm  -22.9525 59.4372 21.4109
RightHand  -0.346443 8.5417 -3.26557
LeftUpLeg  -22.2507 16.6874 0.392886
LeftLeg  23.3048 5.41301 2.87583
LeftFoot  -12.1543 0.0359264 -5.19408
LeftToes  1.68253e-010 -3.2327e-011 -2.69673e-012
